<svg width="80" height="80" viewBox="0 0 130 130" fill="none" xmlns="http://www.w3.org/2000/svg">
<g filter="url(#filter0_dddddd_135_140)">
<path d="M72.4999 58.8125C72.4999 58.481 72.3682 58.163 72.1338 57.9286C71.8994 57.6942 71.5814 57.5625 71.2499 57.5625L61.2499 57.5C60.9184 57.5 60.6005 57.6317 60.366 57.8661C60.1316 58.1005 59.9999 58.4185 59.9999 58.75C59.9999 59.0815 60.1316 59.3995 60.366 59.6339C60.6005 59.8683 60.9184 60 61.2499 60H68.1999L57.8624 70.3625C57.7453 70.4787 57.6523 70.617 57.5888 70.7693C57.5253 70.9216 57.4927 71.085 57.4927 71.25C57.4927 71.415 57.5253 71.5784 57.5888 71.7307C57.6523 71.883 57.7453 72.0213 57.8624 72.1375C57.9786 72.2547 58.1169 72.3477 58.2692 72.4111C58.4215 72.4746 58.5849 72.5072 58.7499 72.5072C58.9149 72.5072 59.0783 72.4746 59.2306 72.4111C59.383 72.3477 59.5212 72.2547 59.6374 72.1375L69.9999 61.775V68.75C69.9999 69.0815 70.1316 69.3995 70.366 69.6339C70.6005 69.8683 70.9184 70 71.2499 70C71.5814 70 71.8994 69.8683 72.1338 69.6339C72.3682 69.3995 72.4999 69.0815 72.4999 68.75V58.8125Z" fill="#2FA15D"/>
</g>
<defs>
<filter id="filter0_dddddd_135_140" x="0.765278" y="0.772602" width="128.462" height="128.462" filterUnits="userSpaceOnUse" color-interpolation-filters="sRGB">
<feFlood flood-opacity="0" result="BackgroundImageFix"/>
<feColorMatrix in="SourceAlpha" type="matrix" values="0 0 0 0 0 0 0 0 0 0 0 0 0 0 0 0 0 0 127 0" result="hardAlpha"/>
<feOffset/>
<feGaussianBlur stdDeviation="0.675326"/>
<feColorMatrix type="matrix" values="0 0 0 0 0.156863 0 0 0 0 0.423529 0 0 0 0 0.223529 0 0 0 1 0"/>
<feBlend mode="normal" in2="BackgroundImageFix" result="effect1_dropShadow_135_140"/>
<feColorMatrix in="SourceAlpha" type="matrix" values="0 0 0 0 0 0 0 0 0 0 0 0 0 0 0 0 0 0 127 0" result="hardAlpha"/>
<feOffset/>
<feGaussianBlur stdDeviation="1.35065"/>
<feColorMatrix type="matrix" values="0 0 0 0 0.156863 0 0 0 0 0.423529 0 0 0 0 0.223529 0 0 0 1 0"/>
<feBlend mode="normal" in2="effect1_dropShadow_135_140" result="effect2_dropShadow_135_140"/>
<feColorMatrix in="SourceAlpha" type="matrix" values="0 0 0 0 0 0 0 0 0 0 0 0 0 0 0 0 0 0 127 0" result="hardAlpha"/>
<feOffset/>
<feGaussianBlur stdDeviation="4.72728"/>
<feColorMatrix type="matrix" values="0 0 0 0 0.156863 0 0 0 0 0.423529 0 0 0 0 0.223529 0 0 0 1 0"/>
<feBlend mode="normal" in2="effect2_dropShadow_135_140" result="effect3_dropShadow_135_140"/>
<feColorMatrix in="SourceAlpha" type="matrix" values="0 0 0 0 0 0 0 0 0 0 0 0 0 0 0 0 0 0 127 0" result="hardAlpha"/>
<feOffset/>
<feGaussianBlur stdDeviation="9.45457"/>
<feColorMatrix type="matrix" values="0 0 0 0 0.156863 0 0 0 0 0.423529 0 0 0 0 0.223529 0 0 0 1 0"/>
<feBlend mode="normal" in2="effect3_dropShadow_135_140" result="effect4_dropShadow_135_140"/>
<feColorMatrix in="SourceAlpha" type="matrix" values="0 0 0 0 0 0 0 0 0 0 0 0 0 0 0 0 0 0 127 0" result="hardAlpha"/>
<feOffset/>
<feGaussianBlur stdDeviation="16.2078"/>
<feColorMatrix type="matrix" values="0 0 0 0 0.156863 0 0 0 0 0.423529 0 0 0 0 0.223529 0 0 0 1 0"/>
<feBlend mode="normal" in2="effect4_dropShadow_135_140" result="effect5_dropShadow_135_140"/>
<feColorMatrix in="SourceAlpha" type="matrix" values="0 0 0 0 0 0 0 0 0 0 0 0 0 0 0 0 0 0 127 0" result="hardAlpha"/>
<feOffset/>
<feGaussianBlur stdDeviation="28.3637"/>
<feColorMatrix type="matrix" values="0 0 0 0 0.156863 0 0 0 0 0.423529 0 0 0 0 0.223529 0 0 0 1 0"/>
<feBlend mode="normal" in2="effect5_dropShadow_135_140" result="effect6_dropShadow_135_140"/>
<feBlend mode="normal" in="SourceGraphic" in2="effect6_dropShadow_135_140" result="shape"/>
</filter>
</defs>
</svg>
